<svg width="32" height="32" viewBox="0 0 32 32" fill="none" xmlns="http://www.w3.org/2000/svg">
<path d="M32 16C32 24.8366 24.8366 32 16 32C7.16344 32 0 24.8366 0 16C0 7.16344 7.16344 0 16 0C24.8366 0 32 7.16344 32 16Z" fill="white"/>
<path d="M18.7071 9.70711C19.0976 9.31658 19.0976 8.68342 18.7071 8.29289C18.3166 7.90237 17.6834 7.90237 17.2929 8.29289L18.7071 9.70711ZM11.5657 15.4343L10.8586 14.7272L11.5657 15.4343ZM11.5657 16.5657L12.2728 15.8586L11.5657 16.5657ZM17.2929 23.7071C17.6834 24.0976 18.3166 24.0976 18.7071 23.7071C19.0976 23.3166 19.0976 22.6834 18.7071 22.2929L17.2929 23.7071ZM17.2929 8.29289L10.8586 14.7272L12.2728 16.1414L18.7071 9.70711L17.2929 8.29289ZM10.8586 17.2728L17.2929 23.7071L18.7071 22.2929L12.2728 15.8586L10.8586 17.2728ZM10.8586 14.7272C10.1556 15.4302 10.1556 16.5698 10.8586 17.2728L12.2728 15.8586C12.3509 15.9367 12.3509 16.0633 12.2728 16.1414L10.8586 14.7272Z" fill="#E94B64"/>
</svg>
