<svg width="62" height="62" viewBox="0 0 62 62" fill="none" xmlns="http://www.w3.org/2000/svg">
<path d="M4 31C4 16.0883 16.0883 4 31 4C45.9117 4 58 16.0883 58 31C58 45.9117 45.9117 58 31 58C16.0883 58 4 45.9117 4 31Z" fill="#E94B64"/>
<mask id="path-3-inside-1_89_773" fill="white">
<path d="M46.4888 24.2231C46.7536 23.0435 45.9359 21.8931 44.7319 21.7844C41.4752 21.4905 35.3845 21 31 21C26.6846 21 20.7163 21.4751 17.4242 21.7704C16.1683 21.883 15.34 23.1228 15.682 24.3364C16.421 26.9588 17.5541 31.2685 18 34.5C18.4178 37.5275 18.5199 41.6929 18.5398 44.2668C18.5493 45.4993 19.6426 46.4566 20.8656 46.3031C23.4939 45.9731 27.8175 45.5 31 45.5C34.2436 45.5 38.6723 45.9914 41.2838 46.3219C42.4546 46.47 43.5165 45.5962 43.591 44.4184C43.7528 41.861 44.0638 37.5937 44.5 34.5C44.9587 31.2461 45.9011 26.8416 46.4888 24.2231Z"/>
</mask>
<path d="M46.4888 24.2231C46.7536 23.0435 45.9359 21.8931 44.7319 21.7844C41.4752 21.4905 35.3845 21 31 21C26.6846 21 20.7163 21.4751 17.4242 21.7704C16.1683 21.883 15.34 23.1228 15.682 24.3364C16.421 26.9588 17.5541 31.2685 18 34.5C18.4178 37.5275 18.5199 41.6929 18.5398 44.2668C18.5493 45.4993 19.6426 46.4566 20.8656 46.3031C23.4939 45.9731 27.8175 45.5 31 45.5C34.2436 45.5 38.6723 45.9914 41.2838 46.3219C42.4546 46.47 43.5165 45.5962 43.591 44.4184C43.7528 41.861 44.0638 37.5937 44.5 34.5C44.9587 31.2461 45.9011 26.8416 46.4888 24.2231Z" fill="#E94B64"/>
<path d="M18 34.5L20.9718 34.0899L18 34.5ZM44.5 34.5L47.4706 34.9188L44.5 34.5ZM31 45.5V48.5V45.5ZM18.5398 44.2668L15.5399 44.29L18.5398 44.2668ZM20.8656 46.3031L21.2392 49.2797L20.8656 46.3031ZM15.682 24.3364L18.5696 23.5227L15.682 24.3364ZM18.5696 23.5227C19.309 26.1465 20.4949 30.6331 20.9718 34.0899L15.0282 34.9101C14.6134 31.9039 13.533 27.771 12.7945 25.1501L18.5696 23.5227ZM20.9718 34.0899C21.4188 37.3291 21.5198 41.6676 21.5397 44.2436L15.5399 44.29C15.52 41.7183 15.4167 37.726 15.0282 34.9101L20.9718 34.0899ZM40.597 44.229C40.7588 41.6711 41.0755 37.3009 41.5294 34.0812L47.4706 34.9188C47.0522 37.8866 46.7468 42.0509 46.585 44.6078L40.597 44.229ZM41.5294 34.0812C42.0068 30.695 42.9739 26.185 43.5616 23.5662L49.416 24.8801C48.8284 27.4982 47.9107 31.7973 47.4706 34.9188L41.5294 34.0812ZM20.4919 43.3264C23.1216 42.9963 27.611 42.5 31 42.5L31 48.5C28.024 48.5 23.8663 48.9499 21.2392 49.2797L20.4919 43.3264ZM31 42.5C34.4524 42.5 39.0492 43.0152 41.6604 43.3456L40.9071 49.2982C38.2954 48.9677 34.0347 48.5 31 48.5L31 42.5ZM44.4622 24.7723C41.2022 24.478 35.2339 24 31 24V18C35.535 18 41.7482 18.5029 45.0015 18.7966L44.4622 24.7723ZM31 24C26.8338 24 20.9866 24.4629 17.6921 24.7584L17.1562 18.7824C20.446 18.4873 26.5354 18 31 18V24ZM46.585 44.6078C46.4007 47.5214 43.7866 49.6625 40.9071 49.2982L41.6604 43.3456C41.1226 43.2776 40.6323 43.6709 40.597 44.229L46.585 44.6078ZM21.5397 44.2436C21.5354 43.6807 21.0511 43.2562 20.4919 43.3264L21.2392 49.2797C18.2341 49.657 15.5633 47.318 15.5399 44.29L21.5397 44.2436ZM12.7945 25.1501C11.959 22.1851 13.9716 19.068 17.1562 18.7824L17.6921 24.7584C18.365 24.698 18.7211 24.0605 18.5696 23.5227L12.7945 25.1501ZM43.5616 23.5662C43.4398 24.1088 43.8147 24.7138 44.4622 24.7723L45.0015 18.7966C48.057 19.0724 50.0673 21.9782 49.416 24.8801L43.5616 23.5662Z" fill="white" mask="url(#path-3-inside-1_89_773)"/>
<mask id="path-5-inside-2_89_773" fill="white">
<path d="M22 24C22 18.4775 26.0295 14 31 14C35.9705 14 40 18.4775 40 24"/>
</mask>
<path d="M25 24C25 25.6569 23.6569 27 22 27C20.3431 27 19 25.6569 19 24H25ZM43 24C43 25.6569 41.6569 27 40 27C38.3431 27 37 25.6569 37 24H43ZM19 24C19 17.1258 24.0832 11 31 11V17C27.9759 17 25 19.8292 25 24H19ZM31 11C37.9168 11 43 17.1258 43 24H37C37 19.8292 34.0241 17 31 17V11Z" fill="white" mask="url(#path-5-inside-2_89_773)"/>
<path d="M35.5 32C34.6716 32 34 31.3284 34 30.5C34 29.6716 34.6716 29 35.5 29C36.3284 29 37 29.6716 37 30.5C37 31.3284 36.3284 32 35.5 32Z" fill="white"/>
<path d="M36 35C36 35 34.5 38 31.5 38C28.5 38 27 35 27 35" stroke="white" stroke-width="2" stroke-linecap="round" stroke-linejoin="round"/>
<path d="M26.5 32C25.6716 32 25 31.3284 25 30.5C25 29.6716 25.6716 29 26.5 29C27.3284 29 28 29.6716 28 30.5C28 31.3284 27.3284 32 26.5 32Z" fill="white"/>
<path d="M31 54C18.2975 54 8 43.7025 8 31H0C0 48.1208 13.8792 62 31 62V54ZM54 31C54 43.7025 43.7025 54 31 54V62C48.1208 62 62 48.1208 62 31H54ZM31 8C43.7025 8 54 18.2975 54 31H62C62 13.8792 48.1208 0 31 0V8ZM31 0C13.8792 0 0 13.8792 0 31H8C8 18.2975 18.2975 8 31 8V0Z" fill="white"/>
</svg>
