<svg width="18" height="24" viewBox="0 0 18 24" fill="none" xmlns="http://www.w3.org/2000/svg">
<path fill-rule="evenodd" clip-rule="evenodd" d="M2.99998 0H15C16.6568 0 18 1.40154 18 3.13043V20.8696C18 22.5985 16.6568 24 15 24H2.99998C1.34312 24 -2.28882e-05 22.5985 -2.28882e-05 20.8696V3.13043C-2.28882e-05 1.40154 1.34312 0 2.99998 0ZM2.99998 2.08696C2.44769 2.08696 1.99998 2.55414 1.99998 3.13043V20.8696C1.99998 21.4459 2.44769 21.913 2.99998 21.913H15C15.5523 21.913 16 21.4459 16 20.8696V3.13043C16 2.55414 15.5523 2.08696 15 2.08696H2.99998Z" fill="#9F9F9F"/>
<path d="M3.99997 3C3.99997 3.55228 4.44768 4 4.99997 4H13C13.5523 4 14 3.55228 14 3V2H3.99997V3Z" fill="#9F9F9F"/>
<path d="M3.99997 8C3.99997 7.44772 4.44768 7 4.99997 7H13C13.5523 7 14 7.44772 14 8C14 8.55228 13.5523 9 13 9H4.99997C4.44769 9 3.99997 8.55228 3.99997 8Z" fill="#9F9F9F"/>
<path d="M3.99997 12C3.99997 11.4477 4.44768 11 4.99997 11H8.99997C9.55225 11 9.99997 11.4477 9.99997 12C9.99997 12.5523 9.55225 13 8.99997 13H4.99997C4.44768 13 3.99997 12.5523 3.99997 12Z" fill="#9F9F9F"/>
<path d="M3.99997 16C3.99997 15.4477 4.44768 15 4.99997 15H6.99997C7.55225 15 7.99997 15.4477 7.99997 16C7.99997 16.5523 7.55225 17 6.99997 17H4.99997C4.44768 17 3.99997 16.5523 3.99997 16Z" fill="#9F9F9F"/>
</svg>
