<svg width="32" height="32" viewBox="0 0 32 32" fill="none" xmlns="http://www.w3.org/2000/svg">
<rect x="10" y="11" width="12" height="2" rx="1" fill="#9F9F9F"/>
<rect x="10" y="15" width="8" height="2" rx="1" fill="#9F9F9F"/>
<path d="M27 20.3333C27 20.7318 26.8352 21.1231 26.527 21.4184C26.2174 21.7151 25.7888 21.8889 25.3333 21.8889H9.73514C9.21943 21.8889 8.72366 22.0881 8.35133 22.4449L5 25.6566V7.55556C5 7.15706 5.16479 6.76582 5.47295 6.47049C5.78257 6.17378 6.21123 6 6.66667 6H25.3333C25.7888 6 26.2174 6.17378 26.527 6.47049C26.8352 6.76582 27 7.15706 27 7.55556V20.3333Z" stroke="#9F9F9F" stroke-width="2" stroke-linecap="round" stroke-linejoin="round"/>
</svg>
