<svg width="19" height="18" viewBox="0 0 19 18" fill="none" xmlns="http://www.w3.org/2000/svg">
<path d="M3.38843 5.16667V3.02504C3.38851 2.72694 3.4467 2.43254 3.55883 2.16283C3.67096 1.89313 3.83427 1.65478 4.03712 1.46478C4.23997 1.27478 4.47734 1.13782 4.73232 1.06367C4.98729 0.989519 5.25357 0.980007 5.51216 1.03581L14.9344 2.85691C15.3436 2.9452 15.7128 3.19243 15.9782 3.55595C16.2436 3.91946 16.3887 4.37647 16.3884 4.84816L16.3884 6" fill="white"/>
<path d="M3.38843 5.16667V3.02504C3.38851 2.72694 3.4467 2.43254 3.55883 2.16283C3.67096 1.89313 3.83427 1.65478 4.03712 1.46478C4.23997 1.27478 4.47734 1.13782 4.73232 1.06367C4.98729 0.989519 5.25357 0.980007 5.51216 1.03581L14.9344 2.85691C15.3436 2.9452 15.7128 3.19243 15.9782 3.55595C16.2436 3.91946 16.3887 4.37647 16.3884 4.84816L16.3884 6" stroke="#E94B64" stroke-width="2" stroke-linejoin="round"/>
<path d="M16.3115 6L2.46535 6C1.91003 6 1.38843 6.48204 1.38843 7.16667V15.8333C1.38843 16.518 1.91003 17 2.46535 17H16.3115C16.8668 17 17.3884 16.518 17.3884 15.8333V7.16667C17.3884 6.48204 16.8668 6 16.3115 6Z" fill="#DA3731" fill-opacity="0.4" stroke="#E94B64" stroke-width="2" stroke-linejoin="round"/>
<path d="M4.88843 11C5.1851 11 5.47511 10.912 5.72178 10.7472C5.96846 10.5824 6.16071 10.3481 6.27425 10.074C6.38778 9.79994 6.41748 9.49834 6.3596 9.20737C6.30173 8.91639 6.15887 8.64912 5.94909 8.43934C5.73931 8.22956 5.47203 8.0867 5.18106 8.02882C4.89009 7.97094 4.58849 8.00065 4.3144 8.11418C4.04031 8.22771 3.80604 8.41997 3.64122 8.66664C3.4764 8.91332 3.38843 9.20333 3.38843 9.5C3.38843 9.89783 3.54646 10.2794 3.82777 10.5607C4.10907 10.842 4.4906 11 4.88843 11Z" fill="#E94B64"/>
</svg>
