<svg width="51" height="51" viewBox="0 0 51 51" fill="none" xmlns="http://www.w3.org/2000/svg">
<path d="M30.1843 6.1337C29.6486 6.0047 29.1114 6.33391 28.9825 6.86861C28.8537 7.40341 29.1827 7.9415 29.7175 8.0704C37.791 10.0167 43.4295 17.1839 43.4295 25.4999C43.4295 35.3863 35.3864 43.4295 25.4999 43.4295C15.6134 43.4295 7.5703 35.3863 7.5703 25.4999C7.5703 17.1842 13.2086 10.017 21.2817 8.0705C21.8165 7.9415 22.1455 7.40341 22.0166 6.86871C21.8876 6.33391 21.3493 6.0051 20.8148 6.1338C16.5436 7.16366 12.6739 9.63266 9.91859 13.086C7.07903 16.6449 5.57812 20.9376 5.57812 25.4999C5.57812 36.4848 14.515 45.4217 25.4999 45.4217C36.4848 45.4217 45.4217 36.4849 45.4217 25.4999C45.4217 20.9375 43.9208 16.6447 41.0811 13.0857C38.3257 9.63246 34.4558 7.16346 30.1843 6.1337Z" fill="#F1A350"/>
<path d="M50.3993 23.1041L49.234 20.9299L49.4283 18.2421C49.6152 16.5193 48.928 14.8379 47.5876 13.7414L45.6532 12.1574L44.8923 9.86517C44.4662 8.11255 43.1351 6.70388 41.4081 6.18223L39.0204 5.46086L37.1918 3.34716C36.1098 2.07446 34.4721 1.41246 32.8108 1.57571L30.3325 1.82265L27.8963 0.600543C26.395 -0.199816 24.6051 -0.200513 23.1036 0.600443L20.9295 1.76567L18.2418 1.57123C16.5182 1.38437 14.8374 2.07167 13.741 3.41191L12.1569 5.34631L9.86483 6.10723C8.11211 6.53335 6.70344 7.86443 6.18179 9.59135L5.46052 11.9791L3.34682 13.8078C2.07422 14.8898 1.41182 16.5271 1.57528 18.1888L1.82221 20.6671L0.600104 23.1032C-0.200354 24.6046 -0.200951 26.3945 0.599905 27.8961L1.76523 30.0702L1.57079 32.758C1.38403 34.4808 2.07123 36.1621 3.41147 37.2587L5.34587 38.8427L6.10679 41.1349C6.53281 42.8875 7.86389 44.2962 9.59101 44.8179L11.9786 45.5391L13.8074 47.6529C14.8894 48.9255 16.5264 49.5879 18.1884 49.4244L20.6665 49.1775L23.1025 50.3994C23.8534 50.7998 24.6766 51.0001 25.4998 51.0001C26.3223 51.0001 27.1449 50.8001 27.8955 50.3998L30.0696 49.2345L32.7574 49.429C34.4801 49.6154 36.1615 48.9285 37.2582 47.5883L38.8422 45.6539L41.1345 44.8931C42.887 44.4669 44.2956 43.1359 44.8172 41.4088L45.5386 39.0212L47.6524 37.1925C48.925 36.1105 49.5874 34.4732 49.4239 32.8114L49.1769 30.3333L50.3989 27.8972C51.1994 26.3957 51.2002 24.6057 50.3993 23.1041ZM48.6367 26.9675C48.6323 26.9757 48.6281 26.9839 48.624 26.992L47.2667 29.6979C47.1821 29.8665 47.1472 30.0556 47.1658 30.2434L47.4414 33.0075C47.5408 34.0183 47.1373 35.0153 46.3555 35.6801L44.0169 37.7034C43.8742 37.8268 43.7696 37.9881 43.7151 38.1686L42.9102 40.8326C42.5894 41.8948 41.7177 42.7115 40.6354 42.9638C40.6059 42.9707 40.5766 42.979 40.5478 42.9885L37.9406 43.8539C37.7616 43.9133 37.6031 44.0223 37.4837 44.1682L35.7166 46.3263C35.0455 47.1467 34.0144 47.5657 32.9594 47.4469C32.9462 47.4455 32.933 47.4443 32.9199 47.4433L29.9255 47.2267C29.7369 47.2132 29.5493 47.2532 29.3831 47.3423L26.9562 48.643C26.041 49.131 24.9479 49.129 24.032 48.6373C24.0239 48.633 24.0157 48.6287 24.0075 48.6246L21.3017 47.2674C21.1627 47.1976 21.0097 47.1616 20.8551 47.1616C20.8222 47.1616 20.7892 47.1632 20.7563 47.1664L17.9921 47.4419C16.9815 47.5417 15.9843 47.1378 15.3195 46.356L13.2963 44.0174C13.1729 43.8748 13.0116 43.7701 12.831 43.7156L10.1669 42.9109C9.10462 42.59 8.28802 41.7183 8.03572 40.636C8.02884 40.6064 8.02057 40.5772 8.01101 40.5483L7.14571 37.9411C7.08634 37.7621 6.97737 37.6037 6.83144 37.4843L4.67341 35.7171C3.85303 35.0459 3.43408 34.0152 3.55281 32.9599C3.55431 32.9468 3.5555 32.9336 3.5565 32.9204L3.77305 29.9258C3.78669 29.7378 3.74655 29.5497 3.6575 29.3835L2.35671 26.9568C1.86862 26.0416 1.87072 24.9485 2.36229 24.0326C2.36667 24.0245 2.37085 24.0163 2.37494 24.0082L3.73221 21.3023C3.81678 21.1337 3.85174 20.9446 3.83301 20.7569L3.55759 17.9926C3.45818 16.9818 3.8617 15.9848 4.64353 15.32L6.98215 13.2967C7.12479 13.1733 7.22938 13.012 7.28397 12.8315L8.08881 10.1674C8.40965 9.10516 9.28132 8.28856 10.3637 8.03615C10.3933 8.02928 10.4224 8.02101 10.4513 8.01145L13.0584 7.14605C13.2374 7.08668 13.3958 6.97771 13.5152 6.83178L15.2825 4.67365C15.9536 3.85337 16.9847 3.43462 18.0396 3.55315C18.0528 3.55465 18.0659 3.55584 18.0791 3.55684L21.0735 3.77339C21.2611 3.78674 21.4497 3.74689 21.6159 3.65784L24.0427 2.35715C24.9578 1.86906 26.051 1.87106 26.9668 2.36273C26.9749 2.36701 26.983 2.37129 26.9913 2.37538L29.6972 3.73265C29.8657 3.81722 30.0549 3.85228 30.2425 3.83345L33.0068 3.55803C34.0174 3.45842 35.0146 3.86214 35.6794 4.64397L37.7027 6.98259C37.826 7.12523 37.9873 7.22982 38.1679 7.2844L40.832 8.08925C41.8942 8.41009 42.7108 9.28186 42.9632 10.3641C42.9701 10.3937 42.9783 10.4229 42.9879 10.4518L43.8533 13.0588C43.9128 13.2378 44.0216 13.3962 44.1676 13.5156L46.3257 15.2828C47.1461 15.954 47.5649 16.9846 47.4462 18.04C47.4447 18.0531 47.4435 18.0663 47.4426 18.0795L47.2261 21.0741C47.2124 21.2621 47.2526 21.4502 47.3415 21.6164L48.6423 24.0432C49.1305 24.9586 49.1284 26.0517 48.6367 26.9675Z" fill="#F1A350"/>
<path d="M21.1771 20.0728C21.0173 19.7362 20.6751 19.5028 20.2777 19.5028H15.0146C14.4645 19.5028 14.0186 19.9487 14.0186 20.4989V35.5763C14.0186 36.1264 14.4645 36.5724 15.0146 36.5724H20.2777C20.6906 36.5724 21.0447 36.3213 21.1957 35.9634C21.955 36.0699 22.7372 36.2859 23.5516 36.5114C24.776 36.8504 26.042 37.2009 27.3573 37.2009H33.1076C34.8852 37.2009 36.3257 36.2585 36.9609 34.6798C37.2703 33.9106 37.3245 33.1123 37.1437 32.4441C37.4744 32.1467 37.7539 31.7766 37.9652 31.3444C38.3937 30.4686 38.4792 29.4838 38.2364 28.6543C38.689 28.2171 39.0267 27.6396 39.2032 26.9588C39.3682 26.3223 39.3654 25.6943 39.2185 25.1501C40.117 24.6216 40.7221 23.6613 40.7221 22.5794C40.7221 21.7308 40.3917 20.9489 39.7917 20.3777C39.2155 19.8293 38.4482 19.5272 37.631 19.5272L29.5257 19.5274C28.9099 18.7549 28.7182 17.7066 29.0689 16.8628C29.7884 15.131 29.7438 13.6651 28.9245 12.1098C28.3163 10.9554 26.6809 9.80613 25.3064 10.0024C24.4756 10.1211 23.8745 10.7083 23.6982 11.5733C23.6463 11.8278 23.632 12.1027 23.6156 12.4211C23.5749 13.2064 23.5192 14.282 22.8412 15.5808C22.3817 16.4612 22.2284 17.3668 22.0932 18.1657C21.8994 19.3102 21.8055 19.8616 21.1771 20.0728ZM16.0107 21.4949H19.2816V34.5802H16.0107V21.4949ZM24.0574 18.4982C24.1735 17.8128 24.2934 17.104 24.6074 16.5026C25.4862 14.8189 25.5606 13.3824 25.6052 12.5242C25.617 12.2956 25.6282 12.0796 25.6503 11.971C25.6504 11.9703 25.6506 11.9695 25.6508 11.9688C25.9963 11.9736 26.8467 12.4401 27.162 13.0385C27.7076 14.0741 27.7257 14.9035 27.2293 16.0986C26.7816 17.1762 26.8152 18.4266 27.2581 19.5383C26.7735 19.6058 26.4001 20.0206 26.4001 20.5238C26.4001 21.0738 26.8462 21.5199 27.3962 21.5199L37.631 21.5196C37.9345 21.5196 38.2141 21.6265 38.4181 21.8208C38.5604 21.9561 38.7299 22.1978 38.7299 22.5795C38.7299 23.1138 38.2402 23.5758 37.6603 23.5884L35.0965 23.6442C34.5466 23.6562 34.1104 24.1117 34.1223 24.6617C34.1342 25.2044 34.5776 25.6362 35.1178 25.6362C35.1251 25.6362 35.1325 25.6362 35.1399 25.636L37.2752 25.5896C37.3448 25.7869 37.381 26.1633 37.2344 26.5945C37.1096 26.9613 36.7746 27.5765 35.9319 27.5765C35.3819 27.5765 34.9358 28.0224 34.9358 28.5726C34.9358 29.1227 35.3819 29.5687 35.9319 29.5687C36.0829 29.5687 36.2312 29.5593 36.3762 29.5409C36.3885 29.8228 36.3306 30.153 36.1759 30.4691C35.993 30.8429 35.6315 31.2885 34.948 31.2885C34.398 31.2885 33.9519 31.7345 33.9519 32.2846C33.9519 32.8347 34.398 33.2807 34.948 33.2807C35.0511 33.2807 35.1531 33.2761 35.2538 33.267C35.2512 33.4582 35.2124 33.6972 35.1037 33.9585C34.9475 34.3344 34.4402 35.2087 33.1078 35.2087H27.3575C26.3129 35.2087 25.2299 34.9089 24.0834 34.5914C23.1711 34.3388 22.2357 34.08 21.274 33.9645V22.0888C23.5166 21.6824 23.8258 19.8669 24.0574 18.4982Z" fill="#F1A350"/>
<path d="M25.5003 7.57031C26.0504 7.57031 26.4964 7.12436 26.4964 6.57422C26.4964 6.02408 26.0504 5.57812 25.5003 5.57812H25.4996C24.9495 5.57812 24.5039 6.02408 24.5039 6.57422C24.5039 7.12436 24.9502 7.57031 25.5003 7.57031Z" fill="#F1A350"/>
</svg>
