<svg width="69" height="69" viewBox="0 0 69 69" fill="none" xmlns="http://www.w3.org/2000/svg">
<path d="M52.1125 41.0231C47.3166 41.0231 43.415 44.9247 43.415 49.7206C43.415 54.5165 47.3166 58.4181 52.1125 58.4181C56.9093 58.4181 60.81 54.5165 60.81 49.7206C60.81 44.9247 56.9084 41.0231 52.1125 41.0231ZM52.1125 54.0693C49.7143 54.0693 47.7638 52.1189 47.7638 49.7206C47.7638 47.3223 49.7143 45.3718 52.1125 45.3718C54.5108 45.3718 56.4613 47.3223 56.4613 49.7206C56.4613 52.119 54.5108 54.0693 52.1125 54.0693Z" fill="#F1A350"/>
<path d="M22.3962 41.0231C17.6003 41.0231 13.6987 44.9247 13.6987 49.7206C13.6987 54.5165 17.6003 58.4181 22.3962 58.4181C27.1921 58.4181 31.0937 54.5165 31.0937 49.7206C31.0937 44.9247 27.1921 41.0231 22.3962 41.0231ZM22.3962 54.0693C19.9979 54.0693 18.0475 52.1189 18.0475 49.7206C18.0475 47.3223 19.9979 45.3718 22.3962 45.3718C24.7939 45.3718 26.745 47.3223 26.745 49.7206C26.745 52.119 24.7945 54.0693 22.3962 54.0693Z" fill="#F1A350"/>
<path d="M57.9696 16.1281C57.5999 15.3939 56.8483 14.9307 56.0264 14.9307H44.5747V19.2794H54.6855L60.6063 31.0558L64.4927 29.1017L57.9696 16.1281Z" fill="#F1A350"/>
<path d="M45.5894 47.6188H29.1367V51.9675H45.5894V47.6188Z" fill="#F1A350"/>
<path d="M15.8727 47.6188H8.33495C7.13392 47.6188 6.16064 48.5922 6.16064 49.7931C6.16064 50.9941 7.13406 51.9674 8.33495 51.9674H15.8728C17.0738 51.9674 18.0471 50.994 18.0471 49.7931C18.0471 48.5921 17.0737 47.6188 15.8727 47.6188Z" fill="#F1A350"/>
<path d="M68.5432 34.3261L64.2663 28.8177C63.8554 28.2871 63.2212 27.9769 62.5493 27.9769H46.7488V12.7563C46.7488 11.5553 45.7754 10.582 44.5745 10.582H8.33495C7.13392 10.582 6.16064 11.5554 6.16064 12.7563C6.16064 13.9572 7.13406 14.9306 8.33495 14.9306H42.4001V30.1512C42.4001 31.3522 43.3735 32.3255 44.5744 32.3255H61.4845L64.6511 36.4046V47.6186H58.6353C57.4342 47.6186 56.461 48.592 56.461 49.7929C56.461 50.9939 57.4344 51.9672 58.6353 51.9672H66.8254C68.0264 51.9672 68.9997 50.9938 68.9998 49.7929V35.6598C68.9998 35.177 68.8389 34.7074 68.5432 34.3261Z" fill="#F1A350"/>
<path d="M15.7277 36.6019H5.72558C4.52455 36.6019 3.55127 37.5753 3.55127 38.7762C3.55127 39.9773 4.52468 40.9505 5.72558 40.9505H15.7276C16.9286 40.9505 17.9019 39.9771 17.9019 38.7762C17.9021 37.5753 16.9286 36.6019 15.7277 36.6019Z" fill="#F1A350"/>
<path d="M20.729 28.0493H2.17431C0.973412 28.0493 0 29.0227 0 30.2238C0 31.4248 0.973412 32.3981 2.17431 32.3981H20.729C21.93 32.3981 22.9033 31.4247 22.9033 30.2238C22.9033 29.0229 21.93 28.0493 20.729 28.0493Z" fill="#F1A350"/>
<path d="M24.2802 19.4968H5.72558C4.52455 19.4968 3.55127 20.4702 3.55127 21.6711C3.55127 22.8722 4.52468 23.8455 5.72558 23.8455H24.2802C25.4813 23.8455 26.4546 22.872 26.4546 21.6711C26.4547 20.4702 25.4813 19.4968 24.2802 19.4968Z" fill="#F1A350"/>
</svg>
