<svg width="48" height="48" viewBox="0 0 48 48" fill="none" xmlns="http://www.w3.org/2000/svg">
<path d="M19.0835 32.3449L25.7126 12.4574C25.9581 11.7206 25.5599 10.9242 24.8232 10.6786C24.0865 10.4331 23.29 10.8312 23.0444 11.568L16.4153 31.4555C16.1698 32.1923 16.5679 32.9887 17.3047 33.2343C17.4522 33.2834 17.6022 33.3068 17.7495 33.3068C18.3383 33.3069 18.887 32.9342 19.0835 32.3449Z" fill="#F1A350"/>
<path d="M29.019 26.1753C31.3453 26.1753 33.2378 24.2828 33.2378 21.9565C33.2378 19.6303 31.3453 17.7378 29.019 17.7378C26.6928 17.7378 24.8003 19.6303 24.8003 21.9565C24.8003 24.2828 26.6928 26.1753 29.019 26.1753ZM29.019 20.5503C29.7945 20.5503 30.4253 21.1811 30.4253 21.9565C30.4253 22.732 29.7945 23.3628 29.019 23.3628C28.2436 23.3628 27.6128 22.732 27.6128 21.9565C27.6128 21.1811 28.2436 20.5503 29.019 20.5503Z" fill="#F1A350"/>
<path d="M13.1089 17.7378C10.7827 17.7378 8.89014 19.6303 8.89014 21.9565C8.89014 24.2828 10.7827 26.1753 13.1089 26.1753C15.4351 26.1753 17.3276 24.2828 17.3276 21.9565C17.3276 19.6303 15.4352 17.7378 13.1089 17.7378ZM13.1089 23.3628C12.3335 23.3628 11.7026 22.732 11.7026 21.9565C11.7026 21.1811 12.3335 20.5503 13.1089 20.5503C13.8843 20.5503 14.5151 21.1811 14.5151 21.9565C14.5151 22.732 13.8844 23.3628 13.1089 23.3628Z" fill="#F1A350"/>
<path d="M47.7192 17.4377L42.8154 10.8993L43.0068 9.56028C43.0693 9.12209 42.922 8.67997 42.609 8.36703L39.6259 5.38391L42.6089 2.40078C43.1581 1.85169 43.1581 0.961252 42.6089 0.412064C42.0598 -0.137029 41.1694 -0.137029 40.6202 0.412064L37.6372 3.39519L34.654 0.412064C34.3411 0.0990332 33.899 -0.0477793 33.4608 0.0142832L19.5396 2.003C19.2383 2.04603 18.9593 2.18563 18.7441 2.40078L1.50834 19.6365C-0.502129 21.6469 -0.502129 24.9182 1.50834 26.9286L16.0924 41.5127C16.3907 41.811 16.7173 42.0641 17.063 42.2738V42.844C17.063 45.6871 19.3761 48.0002 22.2192 48.0002H42.8442C45.6874 48.0002 48.0005 45.6871 48.0005 42.844V18.2815C48.0005 17.9772 47.9018 17.6811 47.7192 17.4377ZM3.49706 24.9399C2.58318 24.026 2.58318 22.5391 3.49706 21.6252L20.4013 4.721L33.1624 2.89803L35.6484 5.384L33.6596 7.37272L32.6652 6.37831C32.1161 5.82922 31.2257 5.82922 30.6765 6.37831C30.1273 6.92741 30.1273 7.81784 30.6765 8.36703L34.654 12.3446C34.9286 12.6192 35.2885 12.7565 35.6484 12.7565C36.0082 12.7565 36.3682 12.6192 36.6427 12.3446C37.1919 11.7955 37.1919 10.905 36.6427 10.3558L35.6483 9.36144L37.637 7.37272L40.1229 9.85869L38.2999 22.6197L21.3957 39.524C20.953 39.9667 20.3645 40.2104 19.7384 40.2104C19.1123 40.2104 18.5238 39.9666 18.0811 39.524L3.49706 24.9399ZM45.188 42.844C45.188 44.1363 44.1366 45.1877 42.8442 45.1877H22.2192C20.9851 45.1877 19.9715 44.2288 19.8825 43.017C21.1544 42.9818 22.4158 42.4813 23.3843 41.5127L40.6201 24.277C40.8353 24.0618 40.9749 23.7827 41.0179 23.4815L42.2529 14.8368L45.188 18.7502V42.844Z" fill="#F1A350"/>
</svg>
