<svg width="44" height="44" viewBox="0 0 44 44" fill="none" xmlns="http://www.w3.org/2000/svg">
<path d="M39.218 28.7371C39.1755 28.666 39.1307 28.5978 39.086 28.5377C38.6416 27.9165 37.9809 27.5059 37.227 27.3819C36.4768 27.258 35.7163 27.4347 35.0974 27.8791L26.8987 33.7334H18.3334C17.9293 33.7334 17.6001 33.4048 17.6001 33.0001C17.6001 32.5953 17.9293 32.2667 18.3334 32.2667H23.1001C24.5154 32.2667 25.6668 31.1154 25.6668 29.7001C25.6668 29.692 25.666 29.6245 25.6653 29.6172C25.6199 28.2026 24.4267 27.0997 23.0415 27.1334H13.5016C12.656 27.1408 11.8325 27.4437 11.1835 27.9848L7.5975 30.9695C7.43026 31.1096 7.3335 31.3157 7.3335 31.5334V40.3334C7.3335 40.739 7.66203 41.0667 8.0668 41.0667H26.2616C27.4525 41.0653 28.6126 40.6458 29.5293 39.8868L38.4196 32.5411C39.6273 31.6807 39.9778 30.0102 39.218 28.7371ZM37.5277 31.3786L28.5949 38.7567C27.9393 39.2994 27.1099 39.5985 26.2607 39.6H8.80011V31.8772L12.1228 29.111C12.5129 28.7862 13.0065 28.6043 13.5081 28.5999L23.0649 28.5992C23.6728 28.5984 24.1803 29.0583 24.2001 29.7C24.2001 30.3064 23.7066 30.8 23.1001 30.8H18.3334C17.1205 30.8 16.1334 31.787 16.1334 33C16.1334 34.2129 17.1205 35.2 18.3334 35.2H27.1334C27.2859 35.2 27.4348 35.1523 27.5609 35.0636L35.9517 29.0715C36.2539 28.8544 36.6213 28.7701 36.9894 28.8287C37.3568 28.8896 37.678 29.089 37.8987 29.397C37.9207 29.4271 37.9405 29.4579 37.9596 29.4894C38.3307 30.1107 38.1583 30.9268 37.5277 31.3786Z" fill="#F1A350"/>
<path d="M8.04469 30.0667H0V31.5333H7.31131V42.5333H0V43.9999H8.04469C8.44946 43.9999 8.778 43.6722 8.778 43.2666V30.8C8.778 30.3944 8.44946 30.0667 8.04469 30.0667Z" fill="#F1A350"/>
<path d="M3.66631 36.6667C2.45339 36.6667 1.46631 37.6538 1.46631 38.8668C1.46631 40.0797 2.45339 41.0668 3.66631 41.0668C4.87923 41.0668 5.86631 40.0797 5.86631 38.8668C5.86631 37.6538 4.87923 36.6667 3.66631 36.6667ZM3.66631 39.6001C3.26223 39.6001 2.933 39.2715 2.933 38.8668C2.933 38.462 3.26223 38.1334 3.66631 38.1334C4.07039 38.1334 4.39961 38.462 4.39961 38.8668C4.39961 39.2715 4.07039 39.6001 3.66631 39.6001Z" fill="#F1A350"/>
<path d="M43.2667 22.7333H0.733305C0.328539 22.7333 0 23.061 0 23.4666C0 26.2965 2.3027 28.5999 5.1333 28.5999H38.8666C41.6965 28.5999 43.9999 26.2965 43.9999 23.4666C44 23.0611 43.6722 22.7333 43.2667 22.7333ZM38.8667 27.1333H5.1333C3.3623 27.1333 1.881 25.8712 1.54069 24.2H42.4592C42.119 25.8712 40.6377 27.1333 38.8667 27.1333Z" fill="#F1A350"/>
<path d="M21.9998 3.66675C11.4867 3.66675 2.93311 12.2204 2.93311 22.7334V23.4667C2.93311 23.8723 3.26164 24.2001 3.66641 24.2001H40.3331C40.7386 24.2001 41.0664 23.8723 41.0664 23.4667V22.7334C41.0665 12.2203 32.5136 3.66675 21.9998 3.66675ZM4.3998 22.7334C4.3998 13.0291 12.2956 5.13336 21.9998 5.13336C31.704 5.13336 39.5998 13.0291 39.5998 22.7334H4.3998Z" fill="#F1A350"/>
<path d="M9.93826 12.0317C9.42564 12.6081 8.9505 13.2249 8.52588 13.8658L9.74834 14.6761C10.1356 14.0924 10.5682 13.5299 11.0346 13.0056L9.93826 12.0317Z" fill="#F1A350"/>
<path d="M21.9998 6.59998C17.8814 6.60221 13.9602 8.15828 10.9595 10.9794L11.9642 12.0479C14.6922 9.48266 18.2569 8.06882 22.0006 8.06667L21.9998 6.59998Z" fill="#F1A350"/>
<path d="M24.1998 0H19.7998V1.4667H24.1998V0Z" fill="#F1A350"/>
<path d="M22.7333 0.733276H21.2666V4.39997H22.7333V0.733276Z" fill="#F1A350"/>
</svg>
